<svg width="156" height="73" viewBox="0 0 156 73" fill="none" xmlns="http://www.w3.org/2000/svg">
<path d="M62.3438 11.5516V61.404H28.1876L41.6982 48.1272H50.7866V36.5489H36.8691L11.5934 61.404H11.5753L10.4268 62.5512L8.19313 64.7476L8.21122 64.7654L0 72.9823H62.3438H74.0457H74.0819V0L62.3438 11.5516Z" fill="#00B2FF"/>
<path d="M155.914 72.8936L140.396 57.6338L128.658 46.0644H113.149L113.122 42.4184V33.499L113.077 33.4723L113.059 30.7512L93.5524 11.5696V11.5519L81.8867 0.0625V72.9825H93.5524V27.8877L101.357 35.5621V46.0644V54.3435V57.6338H123.802L139.429 73.0003L155.914 72.8936Z" fill="#00B2FF"/>
</svg>
