<svg width="34" height="34" viewBox="0 0 34 34" fill="none" xmlns="http://www.w3.org/2000/svg">
<circle cx="17" cy="17" r="17" fill="#00B2FF"/>
<path d="M29.7492 23.4589C29.7492 23.3562 29.6418 23.3562 29.6418 23.2534C29.2121 22.4315 28.2452 21.4041 26.9561 20.274C26.3116 19.7603 25.9893 19.3493 25.7744 19.1438C25.4521 18.7329 25.4522 18.4247 25.5596 18.0137C25.667 17.7055 26.0967 17.1918 26.8487 16.2671C27.2784 15.7534 27.4932 15.4452 27.8155 15.137C29.4269 13.0822 30.1789 11.7466 29.964 11.1301L29.8566 11.0274C29.7492 10.9247 29.6418 10.8219 29.4269 10.8219C29.2121 10.7192 28.8898 10.7192 28.5675 10.8219H24.4853C24.3779 10.8219 24.3779 10.8219 24.163 10.8219C24.0556 10.8219 23.9482 10.8219 23.9482 10.8219H23.8408H23.7333L23.6259 10.9247C23.5185 11.0274 23.5185 11.0274 23.5185 11.1301C23.0887 12.2603 22.5516 13.1849 22.0145 14.2123C21.6922 14.726 21.3699 15.2397 21.0477 15.6507C20.7254 16.0616 20.5105 16.3699 20.2957 16.5753C20.0808 16.7808 19.866 16.8836 19.7585 17.089C19.6511 17.1918 19.4363 17.2945 19.4363 17.1918C19.3288 17.1918 19.2214 17.1918 19.2214 17.089C19.114 16.9863 19.0066 16.8836 18.8991 16.7808C18.7917 16.6781 18.7917 16.4726 18.6843 16.2671C18.6843 16.0616 18.6843 15.8562 18.6843 15.7534C18.6843 15.6507 18.6843 15.3425 18.6843 15.137C18.6843 14.8288 18.6843 14.6233 18.6843 14.5205C18.6843 14.2123 18.6843 13.8014 18.6843 13.3904C18.6843 12.9795 18.6843 12.6712 18.6843 12.4657C18.6843 12.2603 18.6843 11.9521 18.6843 11.7466C18.6843 11.4384 18.6843 11.2329 18.6843 11.1301C18.6843 11.0274 18.5769 10.8219 18.5769 10.7192C18.4694 10.6164 18.362 10.5137 18.2546 10.411C18.1471 10.3082 17.9323 10.3082 17.8249 10.2055C17.2877 10.1027 16.6432 10 15.8912 10C14.1724 10 12.9907 10.1027 12.561 10.3082C12.3461 10.411 12.1313 10.5137 12.0238 10.7192C11.809 10.9247 11.809 11.0274 11.9164 11.0274C12.4535 11.1301 12.8832 11.3356 13.0981 11.6438L13.2055 11.8493C13.313 11.9521 13.3129 12.1575 13.4204 12.4657C13.5278 12.774 13.5278 13.0822 13.5278 13.4931C13.5278 14.1096 13.5278 14.726 13.5278 15.137C13.5278 15.6507 13.4204 15.9589 13.4204 16.2671C13.4204 16.5753 13.313 16.7808 13.2055 16.8836C13.0981 17.089 13.0981 17.1918 12.9907 17.1918C12.9907 17.1918 12.9907 17.2945 12.8832 17.2945C12.7758 17.2945 12.6684 17.3973 12.4535 17.3973C12.3461 17.3973 12.1313 17.2945 12.0238 17.1918C11.809 17.089 11.5941 16.8836 11.4867 16.6781C11.2719 16.4726 11.057 16.1644 10.8421 15.7534C10.6273 15.3425 10.305 14.9315 10.0901 14.3151L9.87531 13.9041C9.76788 13.6986 9.55303 13.2877 9.33817 12.774C9.12332 12.2603 8.90846 11.8493 8.69361 11.3356C8.58618 11.1301 8.47877 11.0274 8.37134 10.9247H8.26391C8.26391 10.9247 8.15647 10.8219 8.04904 10.8219C7.94162 10.8219 7.8342 10.7192 7.72678 10.7192H3.85942C3.42971 10.7192 3.21486 10.8219 3.10743 10.9247L3 11.0274C3 11.0274 3 11.1301 3 11.2329C3 11.3356 3.00001 11.4383 3.10743 11.6438C3.64457 12.8767 4.28912 14.1096 4.93368 15.3425C5.57824 16.4726 6.2228 17.5 6.65251 18.2192C7.18964 18.9384 7.61934 19.6575 8.15648 20.274C8.69361 20.8904 9.01588 21.3014 9.12331 21.5069C9.33816 21.7123 9.44558 21.8151 9.55301 21.9178L9.87531 22.226C10.0902 22.4315 10.4124 22.7397 10.8421 23.0479C11.2718 23.3562 11.809 23.6644 12.3461 23.9726C12.8832 24.2808 13.5278 24.4863 14.1724 24.6918C14.9244 24.8973 15.5689 25 16.2135 24.8973H17.8249C18.1471 24.8973 18.362 24.7945 18.5769 24.589L18.6843 24.4863C18.6843 24.3836 18.7917 24.3836 18.7917 24.2808C18.7917 24.1781 18.7917 24.0754 18.7917 23.8699C18.7917 23.4589 18.7917 23.1507 18.8991 22.8425C19.0066 22.5343 19.0066 22.3288 19.114 22.1233C19.2214 21.9178 19.3288 21.8151 19.4363 21.7123C19.5437 21.6096 19.6511 21.5069 19.6511 21.5069H19.7585C19.9734 21.4041 20.2957 21.5069 20.5105 21.7123C20.8328 21.9178 21.1551 22.226 21.3699 22.5343C21.5848 22.8425 21.9071 23.1507 22.3368 23.5616C22.7665 23.9726 23.0888 24.2808 23.3036 24.3836L23.6259 24.589C23.8407 24.6918 24.0556 24.7945 24.3779 24.8973C24.7002 25 24.915 25 25.1298 25L28.7824 24.8973C29.1047 24.8973 29.4269 24.7945 29.6418 24.6918C29.8566 24.5891 29.964 24.4863 29.964 24.2808C29.964 24.1781 29.964 23.9726 29.964 23.8699C29.7492 23.6644 29.7492 23.5616 29.7492 23.4589Z" fill="white"/>
</svg>
